# xmcd
#
# Track frame offsets: 
#        150
#        19752
#        34115
#        58245
#        84340
#        100529
#        113347
#        133517
#        151824
#        168946
#        192408
#        206812
#        223628
#        240652
#
# Disc length: 3495 seconds
#
# Revision: 0
# Processed by: cddbd v1.5.2PL0 Copyright (c) Steve Scherf et al.
# Submitted via: ExactAudioCopy v0.99pb4
#
DISCID=b10da50e
DTITLE=Neal Black And The Healers - New York City Tracks
DYEAR=1996
DGENRE=Blues
TTITLE0=Cadillac To Mexico
TTITLE1=Black Power Rag
TTITLE2=Bridge in Tennessee
TTITLE3=I Don't Get The Blues
TTITLE4=Hell On The Highway
TTITLE5=Steppin Out
TTITLE6=Lost Without You
TTITLE7=A Thousand Yesterdays
TTITLE8=Out Of The Hole
TTITLE9=Blues For Debra
TTITLE10=Somebody Call Mama
TTITLE11=It Hurts Me Too
TTITLE12=Pink Chainsaw Boogie
TTITLE13=Sometimes You Get Lucky
EXTD=
EXTT0=
EXTT1=
EXTT2=
EXTT3=
EXTT4=
EXTT5=
EXTT6=
EXTT7=
EXTT8=
EXTT9=
EXTT10=
EXTT11=
EXTT12=
EXTT13=
PLAYORDER=
